<svg width="512" height="512" viewBox="0 0 512 512" fill="none" xmlns="http://www.w3.org/2000/svg">
  <rect width="512" height="512" rx="100" fill="#000000"/>
  <path d="M256 96C167.6 96 96 167.6 96 256C96 344.4 167.6 416 256 416C344.4 416 416 344.4 416 256C416 167.6 344.4 96 256 96ZM310.3 347.6C297.9 352.5 284.8 355 271.2 355C245.5 355 222.7 345.1 202.8 325.4C183 305.7 173.1 282.9 173.1 257C173.1 231.1 183 208.3 202.8 188.6C222.6 168.9 245.4 159 271.2 159C284.8 159 297.9 161.5 310.3 166.4C322.7 171.3 333.6 178.2 343 187.2L318.8 211.4C313.9 206.5 308.1 202.6 301.4 199.7C294.7 196.8 287.5 195.4 279.8 195.4C263.4 195.4 249.3 201.3 237.5 213.1C225.7 224.9 219.8 239 219.8 255.4C219.8 271.8 225.7 285.9 237.5 297.7C249.3 309.5 263.4 315.4 279.8 315.4C287.5 315.4 294.7 314 301.4 311.1C308.1 308.2 313.9 304.3 318.8 299.4L343 323.6C333.6 332.6 322.7 339.5 310.3 344.4V347.6Z" fill="white"/>
</svg>